<?xml version="1.0" standalone="no"?>
<!DOCTYPE svg PUBLIC "-//W3C//DTD SVG 20010904//EN"
 "http://www.w3.org/TR/2001/REC-SVG-20010904/DTD/svg10.dtd">
<svg version="1.0" xmlns="http://www.w3.org/2000/svg"
 width="1024.000000pt" height="1024.000000pt" viewBox="0 0 1024.000000 1024.000000"
 preserveAspectRatio="xMidYMid meet">

<g transform="translate(0.000000,1024.000000) scale(0.100000,-0.100000)"
fill="#000000" stroke="none">
<path d="M4880 9600 c-197 -25 -400 -84 -566 -168 -290 -146 -535 -380 -670
-641 -75 -145 -139 -372 -163 -581 -5 -47 -13 -169 -17 -272 l-6 -188 -27 7
c-50 14 -145 8 -200 -12 -112 -41 -196 -157 -221 -307 -16 -93 -7 -266 19
-373 73 -295 274 -546 491 -611 l58 -17 12 -61 c36 -193 167 -493 255 -586
l24 -25 -32 -86 c-31 -84 -33 -86 -77 -103 -109 -39 -406 -293 -524 -447 l-60
-77 -175 -76 c-97 -41 -238 -97 -314 -125 -312 -113 -930 -403 -1112 -521
-316 -206 -519 -453 -653 -795 -83 -212 -236 -710 -287 -935 -73 -324 -195
-946 -195 -996 0 -58 0 -59 58 -114 42 -39 103 -78 213 -137 358 -189 917
-369 1492 -479 100 -19 241 -46 312 -60 166 -32 487 -79 635 -94 63 -6 192
-20 285 -30 472 -53 835 -71 1517 -77 1219 -11 2161 69 3068 258 415 87 576
130 935 251 327 110 546 205 711 309 144 91 145 99 64 539 -95 524 -127 676
-180 872 -55 201 -174 564 -240 728 -131 332 -364 600 -686 790 -224 132 -733
366 -1031 474 -81 29 -202 76 -268 104 -66 27 -153 62 -193 77 -71 26 -75 30
-128 106 -94 134 -370 378 -494 435 -30 14 -61 29 -68 32 -8 4 -27 45 -43 91
l-29 84 37 56 c97 146 195 373 235 541 l20 88 39 6 c102 16 239 108 317 213
93 124 173 304 202 460 19 97 8 333 -19 408 -58 160 -192 246 -358 229 l-61
-6 -6 63 c-3 35 -10 141 -16 234 -19 291 -42 414 -109 590 -57 149 -188 346
-330 497 -140 148 -393 303 -619 377 -185 61 -316 82 -542 86 -113 2 -239 0
-280 -5z m585 -244 c230 -54 402 -129 544 -237 291 -220 472 -529 527 -902 39
-260 -11 -1160 -92 -1672 -51 -322 -113 -479 -270 -685 -306 -402 -644 -590
-1059 -590 -399 0 -721 176 -1031 564 -171 214 -232 359 -283 672 -30 189 -75
596 -86 774 -3 52 -12 201 -21 330 -31 439 -1 743 94 965 67 153 172 313 274
411 185 180 345 272 604 344 180 50 265 60 489 56 172 -4 215 -8 310 -30z
m-2068 -1816 c18 -11 46 -38 63 -61 25 -35 30 -52 30 -98 0 -31 12 -164 25
-296 35 -328 40 -405 28 -405 -32 0 -158 122 -208 200 -133 210 -152 613 -33
665 44 19 57 18 95 -5z m3570 -26 c43 -49 57 -120 50 -249 -12 -202 -78 -373
-191 -492 -62 -66 -118 -104 -133 -89 -3 3 6 138 21 298 15 161 31 332 35 380
6 62 15 96 31 123 52 83 129 96 187 29z m-2685 -2189 c163 -121 354 -213 515
-251 106 -25 452 -31 572 -10 258 45 522 185 740 392 124 118 126 117 126 -65
l0 -126 -221 -415 c-122 -228 -236 -439 -254 -469 -17 -30 -93 -165 -167 -300
-184 -334 -406 -720 -458 -794 -12 -17 -20 -7 -78 90 -89 147 -185 315 -334
583 -69 124 -161 286 -203 360 -43 74 -119 214 -170 310 -51 96 -137 256 -190
355 -175 324 -163 294 -164 420 -1 74 3 118 12 133 13 23 15 23 110 -70 53
-51 127 -116 164 -143z m-1069 -615 c374 -732 793 -1476 1221 -2164 65 -104
120 -194 122 -201 9 -22 -196 -340 -663 -1033 -278 -411 -287 -422 -318 -422
-103 0 -747 82 -981 125 l-91 17 -46 271 c-85 492 -154 996 -192 1402 -38 406
-41 415 -130 415 -61 0 -89 -19 -101 -65 -13 -52 69 -843 127 -1220 38 -250
104 -671 114 -727 3 -22 1 -28 -13 -28 -9 0 -101 20 -203 44 -579 138 -1073
308 -1311 454 l-78 47 0 47 c0 65 131 692 211 1013 109 435 267 871 376 1036
148 226 356 400 658 551 386 194 1192 543 1235 536 8 -2 37 -46 63 -98z m4090
16 c580 -229 1087 -462 1277 -588 114 -75 278 -231 367 -348 142 -188 285
-572 423 -1135 71 -287 200 -923 200 -981 0 -35 -5 -47 -32 -69 -65 -55 -358
-185 -605 -269 -252 -85 -780 -228 -931 -252 -42 -6 -43 -6 -38 17 3 13 15 83
26 154 10 72 39 258 64 415 76 483 91 611 141 1169 24 257 16 281 -86 281 -95
0 -100 -16 -129 -360 -30 -361 -106 -935 -176 -1335 -13 -77 -34 -196 -46
-265 -11 -69 -22 -126 -23 -128 -8 -9 -487 -84 -680 -106 -452 -53 -869 -81
-1436 -96 -375 -10 -859 -4 -859 12 0 22 57 115 253 413 709 1079 1343 2156
1877 3185 151 292 193 370 198 370 2 0 99 -38 215 -84z"/>
<path d="M4405 7728 c-38 -29 -53 -72 -61 -165 -8 -94 3 -137 47 -179 26 -25
39 -29 99 -32 80 -5 108 8 140 61 23 37 26 107 9 206 -10 53 -19 73 -44 98
-30 30 -38 33 -98 33 -51 0 -70 -5 -92 -22z"/>
<path d="M5675 7741 c-51 -21 -85 -108 -85 -219 0 -106 46 -163 139 -170 112
-8 171 49 171 166 0 97 -18 162 -55 199 -30 30 -38 33 -91 32 -33 0 -68 -4
-79 -8z"/>
<path d="M4870 6762 c-22 -23 -30 -40 -30 -67 0 -69 80 -113 235 -130 122 -13
292 35 317 90 16 35 0 93 -33 118 -26 19 -29 19 -125 2 -99 -18 -134 -17 -301
12 -27 4 -38 0 -63 -25z"/>
<path d="M4633 6225 c-34 -14 -53 -41 -53 -74 0 -36 57 -89 113 -106 201 -61
635 -60 844 1 103 30 144 104 89 159 -36 35 -86 41 -195 20 -61 -11 -163 -20
-281 -23 -157 -3 -204 -1 -307 17 -141 24 -167 25 -210 6z"/>
</g>
</svg>
