<?xml version="1.0" standalone="no"?>
<!DOCTYPE svg PUBLIC "-//W3C//DTD SVG 20010904//EN"
 "http://www.w3.org/TR/2001/REC-SVG-20010904/DTD/svg10.dtd">
<svg version="1.0" xmlns="http://www.w3.org/2000/svg"
 width="397.000000pt" height="204.000000pt" viewBox="0 0 397.000000 204.000000"
 preserveAspectRatio="xMidYMid meet">

<g transform="translate(0.000000,204.000000) scale(0.100000,-0.100000)"
fill="#000000" stroke="none">
<path d="M1180 1834 c1 -38 29 -153 50 -202 12 -27 32 -55 45 -62 67 -36 67
-139 0 -330 -58 -167 -109 -339 -102 -346 3 -3 15 0 27 6 21 11 22 11 13 -47
-10 -72 -10 -228 0 -266 6 -22 11 -26 23 -19 14 8 17 39 18 220 1 170 -1 208
-12 200 -7 -6 -15 -9 -18 -6 -9 10 76 248 120 337 39 77 43 91 36 126 -11 60
-23 83 -79 160 -56 76 -65 117 -30 135 54 29 130 -28 241 -182 l73 -103 3 49
c2 37 6 46 18 42 50 -20 49 -21 26 11 -12 17 -22 33 -22 36 0 2 30 2 68 0 59
-4 78 -1 159 31 204 80 295 81 132 2 -72 -34 -95 -41 -97 -30 -4 18 -4 18 -57
-7 -46 -21 -145 -103 -145 -119 0 -5 48 11 107 36 58 24 111 43 117 41 6 -2
19 6 31 18 36 38 69 55 105 55 68 0 79 -41 25 -89 -41 -36 -81 -48 -195 -56
-142 -11 -193 -35 -229 -107 -11 -23 -18 -44 -16 -46 3 -3 23 16 46 42 56 63
83 75 196 86 54 5 127 16 163 24 80 19 80 19 80 2 0 -26 -48 -72 -88 -84 -58
-18 -142 -16 -142 3 0 23 -19 18 -51 -14 -38 -38 -38 -56 -1 -38 15 8 72 17
127 20 55 3 113 11 129 18 23 11 30 11 34 1 6 -18 72 -16 72 3 0 14 3 14 30 0
18 -9 70 -18 128 -21 53 -4 110 -13 126 -20 39 -19 39 -18 22 14 -18 35 -66
60 -66 35 0 -13 -11 -15 -72 -11 -40 3 -88 12 -105 22 -30 15 -71 72 -60 83 3
2 50 -5 106 -16 55 -12 120 -21 144 -21 82 0 139 -25 186 -80 44 -52 58 -58
46 -21 -10 31 -53 80 -87 97 -16 8 -85 21 -154 29 -137 15 -189 34 -214 78
-21 38 -4 61 47 65 33 3 46 -3 84 -36 24 -21 49 -37 55 -35 6 2 37 -8 70 -23
32 -14 81 -35 108 -46 46 -18 48 -18 35 -1 -32 43 -88 88 -134 109 -42 20 -51
21 -58 9 -6 -12 -24 -7 -97 30 -50 25 -90 49 -90 54 0 15 103 -10 208 -51 91
-36 110 -40 167 -36 36 2 65 0 65 -4 0 -5 -7 -20 -16 -34 -17 -24 -17 -24 10
-14 30 11 33 7 38 -48 3 -33 4 -33 66 56 72 102 141 175 183 192 39 17 77 5
85 -24 7 -28 -6 -54 -51 -111 -41 -51 -71 -110 -80 -158 -6 -31 -1 -51 33
-120 47 -98 107 -257 117 -311 7 -37 7 -38 -14 -27 -21 12 -21 11 -14 -31 5
-24 8 -112 8 -196 0 -83 3 -152 6 -152 3 0 14 9 24 20 15 17 17 34 13 132 -3
62 -9 122 -13 132 -7 15 -5 18 6 14 51 -21 50 -26 24 69 -13 48 -47 155 -75
238 -58 170 -70 251 -47 307 9 21 27 43 41 49 34 16 86 160 86 242 0 36 -1 37
-36 37 -78 0 -239 -53 -438 -144 l-78 -36 -62 14 c-194 45 -473 46 -688 1
l-66 -14 -104 48 c-135 64 -305 121 -385 128 -57 5 -63 4 -63 -13z"/>
<path d="M1351 1639 c31 -31 50 -84 56 -161 l6 -68 24 34 c12 19 31 39 40 44
15 9 14 14 -8 58 -14 29 -42 62 -67 81 -50 38 -85 46 -51 12z"/>
<path d="M2887 1631 c-43 -28 -88 -91 -87 -123 1 -7 19 -33 40 -58 l40 -45 0
68 c0 72 17 127 52 164 30 32 11 29 -45 -6z"/>
<path d="M1547 1337 c-66 -87 -129 -230 -142 -324 l-7 -48 42 59 43 59 18 -69
c10 -38 25 -87 32 -110 17 -47 77 -145 77 -126 0 12 -45 209 -56 245 -13 41
16 10 77 -80 35 -53 67 -101 70 -106 4 -5 12 -7 18 -3 7 5 4 23 -10 57 l-20
51 40 -31 c29 -23 49 -31 79 -31 70 0 76 -38 17 -108 -31 -37 -29 -47 7 -33
60 23 108 117 108 211 0 37 -2 39 -19 29 -25 -16 -44 -7 -76 35 -28 37 -70
136 -57 136 4 -1 30 -34 57 -74 28 -41 51 -73 52 -72 1 1 -4 49 -10 106 -12
98 -14 103 -24 73 -13 -36 -22 -39 -56 -22 -30 16 -37 28 -37 68 0 28 -2 31
-14 22 -21 -17 -28 -77 -18 -148 8 -58 7 -63 -10 -63 -61 0 -138 68 -138 123
l-1 32 -19 -24 c-25 -29 -26 -21 -5 104 8 49 13 91 11 92 -2 2 -15 -12 -29
-30z m246 -384 l51 -28 -34 -3 c-33 -3 -79 21 -88 46 -6 19 16 14 71 -15z"/>
<path d="M2710 1348 c0 -13 15 -111 26 -173 l5 -30 -19 22 -20 22 -6 -31 c-3
-18 -13 -42 -21 -55 -17 -26 -84 -63 -114 -63 -19 0 -20 5 -14 83 5 81 -6 137
-27 137 -5 0 -10 -20 -10 -44 0 -41 -2 -45 -32 -55 -28 -10 -35 -9 -45 6 -7 9
-13 22 -14 27 -1 6 -9 -34 -19 -89 -9 -55 -16 -101 -15 -103 2 -2 27 31 56 74
58 84 75 84 36 2 -36 -79 -93 -129 -112 -98 -3 6 -11 10 -17 10 -16 0 -1 -104
24 -162 13 -31 34 -58 57 -74 56 -38 66 -29 26 22 -56 74 -46 104 33 104 27 0
44 8 69 32 36 35 41 29 18 -25 -8 -20 -15 -41 -15 -47 0 -28 26 0 92 98 40 59
74 100 75 92 2 -8 -10 -69 -26 -135 -16 -66 -28 -122 -26 -124 17 -17 115 212
115 269 0 37 20 30 56 -20 20 -28 39 -49 41 -46 9 9 -35 164 -62 217 -35 70
-98 169 -107 169 -5 0 -8 -6 -8 -12z m-150 -388 c-14 -26 -42 -40 -80 -40 -40
0 -31 16 24 41 55 25 70 25 56 -1z"/>
<path d="M1973 1319 c-29 -8 -73 -50 -73 -70 0 -4 34 6 75 24 100 41 99 75 -2
46z"/>
<path d="M2240 1316 c0 -8 33 -27 75 -44 41 -17 75 -27 75 -22 0 4 -18 24 -40
44 -30 27 -49 36 -75 36 -23 0 -35 -5 -35 -14z"/>
<path d="M1350 1183 c-80 -156 -77 -147 -51 -134 25 14 25 18 7 -61 -21 -90
-29 -190 -21 -244 l7 -46 22 21 22 21 18 -51 c16 -44 22 -50 42 -46 16 3 31
-5 50 -24 24 -25 29 -26 39 -13 10 14 15 14 47 -2 29 -13 44 -15 70 -7 l33 9
-35 18 c-19 10 -58 36 -86 57 -28 22 -54 39 -57 39 -4 0 -14 -14 -23 -32 -21
-41 -26 -30 -50 95 -18 97 -18 98 -35 75 -10 -12 -21 -20 -25 -16 -7 8 6 57
51 202 l24 78 -29 -4 c-17 -3 -30 -3 -30 -1 0 2 20 44 45 93 47 94 50 100 38
100 -5 0 -37 -57 -73 -127z"/>
<path d="M2100 1301 c0 -5 -27 -39 -61 -76 -33 -37 -64 -76 -68 -88 -26 -68
-22 -69 39 -4 34 37 73 70 86 73 21 5 24 12 24 55 0 27 -4 49 -10 49 -5 0 -10
-4 -10 -9z"/>
<path d="M2164 1273 c3 -21 5 -43 6 -49 0 -7 11 -15 24 -18 13 -3 49 -34 80
-68 31 -34 56 -56 56 -49 0 30 -34 87 -85 140 -30 32 -55 63 -55 69 0 7 -7 12
-16 12 -12 0 -15 -8 -10 -37z"/>
<path d="M2860 1300 c0 -7 20 -51 45 -97 l45 -83 -31 0 c-24 0 -29 -3 -25 -17
39 -123 75 -258 70 -262 -3 -3 -14 4 -24 17 l-19 22 -11 -57 c-7 -32 -17 -83
-24 -113 l-12 -55 -24 36 -24 37 -46 -40 c-51 -46 -113 -77 -151 -78 -31 0
-109 40 -164 84 -60 49 -71 53 -47 19 44 -62 157 -143 200 -143 10 0 70 16
133 36 63 19 125 39 139 43 16 5 32 23 45 49 l20 42 24 -22 23 -23 -5 130 c-3
72 -11 154 -19 183 -15 50 -14 52 3 47 11 -4 19 -3 19 0 0 10 -120 238 -131
250 -6 5 -9 4 -9 -5z"/>
<path d="M2006 1079 c-3 -8 -17 -61 -31 -119 -15 -58 -29 -113 -32 -122 -7
-26 24 -23 38 4 13 24 43 237 35 246 -3 2 -8 -1 -10 -9z"/>
<path d="M2270 1064 c1 -61 27 -214 40 -228 7 -9 18 -16 25 -16 10 0 4 35 -22
133 -19 72 -37 134 -39 136 -2 2 -4 -9 -4 -25z"/>
<path d="M1414 869 c3 -34 6 -69 6 -78 0 -10 14 -22 35 -30 20 -7 62 -37 94
-67 51 -47 64 -54 99 -54 22 0 47 3 56 6 27 11 17 24 -17 24 -57 0 -192 115
-204 173 -4 21 -11 27 -27 25 -17 -2 -22 3 -24 30 -2 17 -8 32 -14 32 -7 0 -9
-20 -4 -61z"/>
<path d="M2850 894 c0 -30 -3 -34 -19 -29 -14 4 -20 -1 -25 -20 -8 -32 -64
-95 -126 -140 -35 -25 -58 -35 -86 -35 -37 -1 -38 -2 -20 -15 11 -8 40 -15 65
-15 40 0 50 5 102 55 32 31 74 62 94 70 31 14 35 19 35 53 0 20 3 54 6 75 5
30 4 37 -10 37 -12 0 -16 -9 -16 -36z"/>
<path d="M1830 703 c-48 -37 -56 -48 -42 -57 9 -5 99 80 91 88 -2 2 -24 -12
-49 -31z"/>
<path d="M3089 619 c-56 -38 -115 -106 -141 -164 l-13 -29 -7 44 c-3 25 -7 71
-7 103 -1 39 -5 57 -13 57 -7 0 -74 -20 -148 -43 l-135 -43 -128 31 c-87 22
-130 29 -133 21 -2 -6 -9 -24 -15 -41 l-12 -30 -11 47 c-6 25 -14 49 -17 52
-3 3 -66 -14 -139 -39 l-134 -45 -25 23 c-14 12 -41 36 -59 53 l-35 31 -46
-48 c-59 -61 -77 -62 -91 -8 -7 24 -16 39 -23 36 -7 -2 -67 -24 -135 -48 -85
-30 -121 -47 -117 -56 18 -44 13 -41 -26 16 -24 35 -51 68 -59 73 -11 7 -54
-8 -153 -53 l-139 -63 31 -15 c17 -8 30 -18 29 -21 -2 -3 -24 -25 -50 -49 -45
-41 -49 -42 -79 -32 -49 17 -54 15 -73 -39 l-18 -49 -38 30 -38 31 24 35 c29
43 30 65 5 119 -25 55 -72 82 -173 99 -72 13 -93 13 -149 1 -36 -7 -77 -20
-90 -29 -13 -8 -41 -20 -61 -27 -21 -6 -38 -14 -38 -18 0 -3 18 -42 41 -85
l41 -79 -22 -15 c-27 -19 -23 -55 9 -68 22 -10 23 -13 17 -80 -4 -40 -12 -74
-20 -80 -7 -6 -15 -36 -18 -68 -5 -63 3 -71 40 -37 13 13 35 20 59 20 54 0
261 27 302 39 48 15 108 56 116 81 3 11 13 20 21 20 12 0 13 -10 8 -49 l-6
-48 114 -22 c63 -11 121 -21 129 -21 12 0 14 15 11 75 l-4 75 63 28 c64 29 64
29 71 8 3 -12 6 -67 7 -123 1 -93 3 -103 19 -103 14 0 32 28 69 108 28 59 54
122 58 140 5 25 12 32 31 32 22 0 24 -4 24 -49 0 -44 -4 -52 -30 -71 -33 -24
-38 -51 -14 -71 10 -8 14 -23 12 -41 -3 -15 -3 -28 -1 -28 12 0 101 51 112 64
31 37 225 12 267 -35 9 -10 20 -19 25 -19 4 0 36 38 70 85 87 117 92 115 59
-23 -11 -46 -20 -85 -20 -88 0 -34 150 112 205 198 17 27 33 48 37 48 11 0 69
-80 108 -148 19 -34 40 -61 45 -61 6 0 54 10 109 23 l98 24 -5 -39 c-3 -22 -3
-39 0 -39 2 0 25 14 51 32 64 44 124 110 152 166 13 25 25 42 26 37 1 -6 8
-49 14 -96 6 -47 15 -91 20 -99 6 -10 38 -3 154 36 80 27 146 51 146 55 0 3
-16 26 -35 50 -36 45 -42 59 -26 59 8 0 141 -128 141 -136 0 -1 -44 -17 -97
-35 l-98 -34 75 -3 c96 -4 275 14 331 34 79 27 150 84 181 143 55 105 29 248
-57 317 l-38 30 89 23 c49 13 96 28 104 33 9 5 -116 6 -317 2 -326 -6 -331 -6
-335 14 -3 18 -8 17 -59 -19z m-1109 -79 c45 -41 52 -51 40 -60 -24 -16 -140
-48 -195 -54 -27 -3 -51 -5 -52 -5 -5 -2 -3 -48 2 -53 3 -3 51 3 107 13 56 10
104 16 107 14 8 -8 -15 -110 -24 -108 -6 0 -53 4 -105 8 l-95 7 -21 -55 -21
-54 45 13 c46 14 272 20 272 7 0 -12 -75 -123 -83 -123 -4 0 -27 10 -50 22
-31 15 -67 22 -134 26 -89 5 -93 4 -125 -23 -33 -28 -33 -28 -36 -6 -3 16 -8
21 -20 17 -10 -4 -7 1 6 12 20 15 24 30 29 95 6 74 5 77 -18 86 l-24 10 23 0
c19 1 22 5 16 24 -14 46 -33 87 -41 87 -5 0 -9 8 -10 18 -1 9 -4 26 -8 37 -5
18 4 24 83 53 49 17 92 32 95 32 3 0 8 -18 12 -41 7 -39 9 -41 36 -35 35 7
108 52 116 71 8 22 12 19 73 -35z m1541 36 c-9 -11 -3 -17 31 -31 47 -18 102
-66 123 -105 41 -80 22 -194 -44 -253 -64 -58 -162 -98 -236 -96 -29 0 -29 1
-7 11 31 15 28 23 -16 36 -49 15 -115 71 -137 118 -22 47 -22 141 0 188 20 43
64 82 120 107 22 10 36 19 30 20 -5 2 17 5 50 9 103 11 99 12 86 -4z m-2766
-12 c86 -11 132 -45 142 -107 4 -30 1 -40 -21 -61 -15 -13 -49 -30 -76 -37
-28 -7 -48 -14 -47 -16 2 -1 28 -7 58 -13 75 -14 126 -50 135 -95 16 -89 -82
-135 -316 -150 l-95 -5 74 20 c121 33 181 81 167 134 -6 23 -67 66 -93 66 -5
0 -31 -34 -58 -75 -26 -41 -62 -87 -78 -102 l-29 -28 9 50 c4 28 7 89 6 136
-1 71 -6 96 -30 150 -16 35 -31 69 -34 74 -2 6 12 15 31 22 19 6 60 21 90 32
30 11 69 18 85 16 17 -2 52 -7 80 -11z m726 -109 c21 -43 29 -75 29 -113 0
-53 -27 -149 -58 -207 l-16 -30 -11 80 c-19 134 -10 129 -120 76 l-96 -46 3
-65 c1 -36 0 -65 -3 -64 -92 14 -161 29 -165 35 -3 5 0 25 5 46 12 41 4 53
-36 53 -27 0 -27 -1 -6 67 17 55 30 63 78 44 14 -6 25 -1 42 19 12 15 47 44
78 65 30 21 55 40 55 43 0 2 -10 12 -21 21 -21 17 -20 18 72 58 l93 41 24 -31
c13 -18 37 -59 53 -92z m810 89 c4 -16 7 -55 8 -88 1 -51 3 -57 16 -46 8 7 29
42 46 79 18 36 33 67 34 69 4 5 139 -30 148 -38 12 -11 -69 -107 -119 -143
l-44 -31 65 -31 c36 -17 79 -45 96 -61 41 -39 103 -123 96 -131 -3 -3 -40 -13
-82 -23 -86 -20 -69 -29 -130 69 -29 47 -113 141 -125 141 -4 0 -24 -28 -44
-62 -39 -66 -132 -177 -122 -145 3 10 9 50 12 87 7 69 7 69 -17 63 l-24 -5 24
17 c21 16 23 23 18 70 -3 29 -19 80 -37 115 -17 34 -30 63 -28 65 9 7 185 63
193 61 6 -2 13 -16 16 -32z m595 10 c4 -14 4 -63 2 -110 -4 -83 -4 -85 16 -80
12 3 26 6 33 6 7 0 28 30 48 68 36 68 57 96 88 121 17 13 17 10 11 -69 l-7
-83 29 7 c16 4 36 9 45 12 15 4 16 1 2 -38 -8 -24 -12 -55 -9 -70 5 -26 3 -28
-24 -28 -34 0 -33 -11 12 -77 15 -23 28 -46 28 -51 0 -15 -190 -76 -201 -65
-5 5 -12 50 -15 101 l-7 92 -36 0 c-33 0 -37 -3 -55 -46 -18 -44 -109 -154
-119 -144 -3 3 -1 25 3 50 5 25 9 69 10 98 0 50 -1 52 -27 53 l-28 1 25 7 c21
6 25 13 23 44 -1 20 -16 64 -33 98 -17 33 -29 63 -27 65 6 6 178 62 194 63 7
1 16 -11 19 -25z"/>
<path d="M3417 498 c-43 -58 -51 -81 -51 -153 0 -72 25 -147 61 -187 16 -18
17 -17 41 4 66 61 91 191 53 273 -17 35 -64 95 -76 95 -2 0 -15 -15 -28 -32z"/>
<path d="M685 458 c4 -40 9 -75 11 -77 6 -7 36 23 44 44 10 28 -7 71 -37 90
l-25 17 7 -74z"/>
<path d="M1276 376 c-14 -25 -26 -48 -26 -52 0 -7 89 2 115 12 8 4 15 11 15
16 0 13 -56 68 -68 68 -6 0 -22 -20 -36 -44z"/>
</g>
</svg>
